# xmcd
#
# Track frame offsets: 
#        150
#        12754
#        26899
#        41416
#        56801
#        73943
#        75643
#        92286
#        110378
#        125365
#        143867
#        156711
#        179047
#
# Disc length: 2579 seconds
#
# Revision: 0
# Processed by: cddbd v1.5.2PL0 Copyright (c) Steve Scherf et al.
# Submitted via: ExactAudioCopyFreeDBPlugin 1.0
#
DISCID=b40a110d
DTITLE=Morten Vestly - Music Train
DYEAR=2013
DGENRE=Country
TTITLE0=Music Train
TTITLE1=Summertime
TTITLE2=3 Chords
TTITLE3=MVB
TTITLE4=Stick Around
TTITLE5=Night Time Man I
TTITLE6=Night Time Man II
TTITLE7=Until That Day
TTITLE8=Beer
TTITLE9=For Your Love
TTITLE10=Hey Baby!
TTITLE11=Where Corn Don't Grow
TTITLE12=Munkestua
EXTD=
EXTT0=
EXTT1=
EXTT2=
EXTT3=
EXTT4=
EXTT5=
EXTT6=
EXTT7=
EXTT8=
EXTT9=
EXTT10=
EXTT11=
EXTT12=
PLAYORDER=
